<svg version="1.0" xmlns="http://www.w3.org/2000/svg" width="1706.667" height="853.333" viewBox="0 0 1280 640">
    <path d="M110.8 231c-12.9 2.2-29 8.4-42.7 16.7C43.7 262.3 27 288.4 27 311.8c0 23.9 13.4 50.9 33.2 67.1 12.8 10.4 32.7 20 50.1 24.1 18.5 4.4 28.2 5.3 54 5.2 26.8-.2 32.7-1 56.7-8l9.5-2.8 4.2 2.8c2.3 1.6 7.2 4 11 5.4 13.2 5 41.6 6.9 55.3 3.8 6.6-1.5 7.2-1.4 19.2 1.1 15.5 3.3 27.4 4.1 41 2.6 26.6-2.9 54.2-13.6 72.2-28 2.1-1.7 4.9-3.1 6.1-3.1 1.2 0 6.5 2 11.6 4.4 38.9 18.4 72.5 25 102.8 20.1 21.2-3.5 35.3-10.7 50.1-25.5 10.5-10.6 15.3-18.7 19-32.4 3-10.8 3.1-26 .3-34.8-6.4-19.9-20.1-37.8-37.8-49.7-16.3-10.9-32.9-16.8-55.3-19.6-34.4-4.2-63.9.1-103.1 15.2-6.3 2.4-12.9 5.2-14.5 6.2-1.7 1-8.6 5.1-15.3 9l-12.2 7.2-9.8-3.1c-10.8-3.4-26.9-6-38-6-10.3 0-25.8 3.3-35.5 7.5-13.5 6-28.3 17.6-34.4 27-2.3 3.7-3.8 5.1-5.8 5.3-3 .2-14.4 5.7-20.7 10.1-5.1 3.5-14.1 12.5-19.3 19.5-6.4 8.6-8.8 21.2-6.2 31.7.9 3.5 2.4 7.1 3.2 8 1.4 1.6 1.1 1.8-4.3 3.4-32.6 9.5-68.1 12.5-90.9 7.8-17.9-3.8-41.8-15.3-54.1-26.2C56.5 355.8 46 339.4 42.4 325c-2.3-9-2.4-21.2-.1-27.7 5.6-16.1 23.7-34.3 43.2-43.4 4.4-2.1 13.2-5.3 19.5-7.1 10.9-3.1 12.3-3.3 27.5-3.3 21.4.1 39.8 4.1 55.5 12 13.5 6.9 25.7 21.6 28 33.9 1.4 7.5.2 16-3.1 21.2-2.6 4.2-13 13.8-18.7 17.1-37.1 21.9-99 9.6-98.5-19.5.3-13 10.3-21.8 29.1-25.6 10.2-2 13-2 22.8 0 10.7 2.2 23.4 9.4 23.4 13.4 0 2.9-5 8.1-9.8 10.3-3 1.3-7.7 2.1-14.4 2.4l-9.9.6.3 4.1.3 4.1 12-.1c15.8 0 21.8-1.8 28.5-8.2 4-3.9 4.9-5.5 5.5-9.4 2.4-16.1-15.8-28.7-45.6-31.4-8.9-.8-19.5.8-29.1 4.3-8 3-18.6 11.3-22.3 17.7-8 13.6-4.6 31.5 8.4 44.5 8.4 8.4 15.2 12.7 26.7 16.7 12.8 4.6 27.1 5.5 44.3 3 19.7-2.9 33.8-9.6 47.2-22.4 4.8-4.5 10.1-10.4 11.7-13 5.4-8.4 6.6-23 3.3-37.1-2.4-10.2-8.4-19.4-18.4-28.7-11.6-10.7-32.9-19.8-53.7-23-12.7-1.9-32-1.6-45.2.6zm422.8 30.5c18.7 2.4 37.1 9.2 49.9 18.7 16 11.8 28.2 35.2 27.8 53.3-.3 15.6-6.6 28.9-19.3 40.8-23 21.7-63.4 27.5-100.1 14.4-11.8-4.2-37.9-15-37.8-15.7 0-.3 3-1.9 6.7-3.7 3.7-1.8 11.7-6.2 17.8-9.8l11.1-6.5 8 3.5c15.8 6.8 34.3 8.8 49.5 5.2 19.8-4.6 30.4-22 23.8-38.8-3.1-7.7-7.4-13.1-15.1-18.8-16.5-12.3-36.6-17.3-61.5-15.2-18.5 1.5-30.3 5-50.6 15.1l-8.5 4.2-5.8-3.8c-3.3-2-9.2-5.2-13.2-7.1-4-1.8-7.3-3.5-7.3-3.8 0-.2 1.6-.9 3.5-1.5s7.4-3.4 12.2-6.2c13.2-7.6 21.8-11.7 32.2-15.5 10.9-3.9 30.6-9.1 39.5-10.3 7.3-1 21.9-.4 37.2 1.5zm-179.3 26c5.4.9 13.7 3.7 13.2 4.4-.2.5-7.3 5.7-15.7 11.6l-15.2 10.8-6.5-1.8c-10.4-2.8-14.6-3.4-30.8-4.1-8.4-.4-15.3-1.1-15.3-1.6 0-.4.6-.8 1.3-.8.8 0 4-1.8 7.1-4 7-4.9 15.2-9.1 22.6-11.5 10.5-3.5 27.9-4.8 39.3-3zm55.6 20.5c6.6 3.3 12.2 6.4 12.6 6.9.3.6-1.4 2.2-3.7 3.7-2.4 1.5-8.6 6-13.9 10l-9.7 7.3-3.9-1.9c-2.2-1-8.6-3.7-14.4-6.1-5.7-2.3-10.5-4.3-10.7-4.4-.4-.4 30.1-21.5 31.1-21.5.4 0 6.1 2.7 12.6 6zm120.6-2.4c8 2.1 18.4 7.7 23.9 12.8 6.9 6.4 8.5 15.3 4.1 21.8-6.7 9.9-25.6 13.4-45 8.4l-9-2.3 3.8-1.6c9-3.8 17.1-5.7 24.8-5.7 7.8 0 7.9 0 9.5-3.2 1.6-3.1 1.6-3.2-.6-5-3.7-3-9.8-4.1-19.5-3.4-8.9.5-25.6 4.1-34.6 7.3l-4.6 1.6-12.4-7.4c-6.8-4.1-13.3-7.7-14.3-8.2-1-.4-1.7-.9-1.5-1.1.2-.2 4.8-2.2 10.2-4.5 27.1-11.2 47.1-14.1 65.2-9.5zm-223.2 16c6.2.9 12 1.9 12.9 2.3 1.2.4-4.7 5.1-21.4 16.9-12.7 9-23.6 16.6-24.3 16.8-2.4 1-3.4-21-1.4-29.4.7-2.6 1.4-4.9 1.6-5.1.5-.7 14-2.9 18.1-3 1.8-.1 8.4.6 14.5 1.5zm138.6 6.8c.7.8 5.9 4.2 11.7 7.6 5.7 3.4 10.4 6.5 10.4 6.9 0 .3-5.1 4.2-11.2 8.6-6.1 4.4-12.6 9-14.3 10.3l-3.2 2.3-12.2-7.8c-6.7-4.3-12.2-8.1-12.4-8.5-.2-.7 28.1-20.8 29.4-20.8.3 0 1.2.6 1.8 1.4zm-188.4 11.3c0 10.3.3 12.4 2.3 16.5 1.3 2.6 3.1 4.8 4 5 1 .2-2.8 2.8-8.9 6.1-8.9 4.7-23.3 11.7-24.4 11.7-.1 0-.8-2-1.5-4.5-4-14.2 6.4-33.7 23-43.3 3-1.7 5.5-3.2 5.5-3.2v11.7zm106.3-2.3c5.9 2.4 13.1 5.1 16 6.1 3 .9 5 2.1 4.5 2.5-5.3 4.8-54.9 37.4-63.4 41.7l-11.1 5.6-5.2-2.5c-2.9-1.4-8-4.8-11.5-7.6-3.4-2.8-7.2-5.7-8.4-6.5-1.2-.8-2-1.7-1.7-1.9.3-.2 4.7-2.3 9.8-4.8 5.1-2.4 20.2-11.7 33.5-20.7 13.3-8.9 24.8-16.2 25.5-16.2.7-.1 6.1 1.9 12 4.3zm52 26.7c7.5 3.9 13.9 7.2 14.1 7.4.2.2-1.3 1.1-3.3 1.9-2 .8-7.8 4-12.9 6.9-17.7 10.4-28.4 14.8-45.2 18.3-7 1.5-28.7 2-31.9.8-1.2-.5 2-2.7 11.1-7.8 12.6-7.1 24.9-15 43.2-28 5.1-3.6 9.8-6.6 10.3-6.6s7.1 3.2 14.6 7.1zm-131.6 29.5c4.4 3.3 4.8 3.9 3.2 4.5-5.5 2.2-23.5.2-34.6-3.8-4.6-1.6-6.3-3.2-3.5-3.4.6 0 5.9-2.1 11.7-4.8l10.5-4.7 3.8 4.2c2.1 2.4 6.1 6 8.9 8zM1118.7 230.6c-10.6 1.6-26.8 6.9-37.4 12.2-9.6 4.9-20.5 14.7-26.8 24.3-9.9 14.7-11.4 39.4-3.3 52.1 1.6 2.6 6.9 8.5 11.7 13 17.9 17.1 41.1 24.9 69.6 23.5 20.1-1 35.9-7.8 48.9-21 12.9-13.2 16.1-31.6 7.7-44.8-5.4-8.6-16.7-16.2-29.2-19.6-15.4-4.2-41.8-.7-54.6 7.3-6.5 4-11.8 10.7-12.9 16.2-1.1 5.4 1.3 11.7 6.2 16.1 6.1 5.7 12.9 7.5 27.9 7.6h12l.3-4.1.3-4.1-9.9-.6c-6.7-.3-11.4-1.1-14.4-2.4-4.7-2.2-9.8-7.4-9.8-10.2 0-4.9 13.9-12.2 26.7-14.1 8.2-1.1 10.2-1.1 18.5.5 19.9 3.8 30 12.5 30.1 26 .2 16-20 28.7-47.8 30.2-25 1.3-46-5.2-61-18.9-7.8-7.1-10.2-10.9-11.5-17.9-1.8-9 .2-17.6 6.1-26.4 8.6-12.8 19.4-20.4 36.4-25.8 15.7-4.9 23.9-6.1 41-6.1 14.4 0 17 .3 26 2.7 26.1 7.3 46.3 20.9 58.4 39.6 5.7 8.9 7.6 15.1 7.5 24.6-.3 19.5-8.5 36.5-26.1 53.6-11.7 11.5-32.8 23.2-49.3 27.5-8.8 2.2-24.9 4.4-33 4.4-14.7 0-44.6-4.5-60.5-9.1-3.8-1.1-7.8-2.3-8.8-2.6-1.7-.4-1.7-.6-.3-2.2.8-.9 2.3-4.6 3.2-8.1 2.2-8.6.7-20.2-3.6-27.7-4.4-7.7-17-20.5-25-25.3-7.6-4.6-18-9.1-19.2-8.4-.4.3-2.3-2-4.2-4.9-3.4-5.4-13.1-14.5-21.8-20.5-11.7-8.1-32.8-14.2-48.5-14.2-11.4 0-26.6 2.5-37.7 6l-9.8 3.1-9.6-5.7c-17.3-10.3-21.5-12.5-32.7-16.9-27.4-10.7-48.4-15.4-72.8-16.2-56.8-2-97.8 18.3-118.1 58.6-5.4 10.7-6.9 16.8-6.8 28.2.1 27.9 14 50.6 40 65.8 15.3 8.9 33.8 12.8 56.2 11.8 16.3-.7 27.1-2.6 42.2-7.1 11-3.4 28.9-10.6 39.5-16 6.7-3.4 9.2-3.3 13.9.5 13.6 10.9 30.7 18.9 52.2 24.4 20.6 5.2 40.5 5.6 61 1.1 11.9-2.7 12.4-2.7 19.1-1.2 19.7 4.5 53-.1 66.5-9.2l4.2-2.9 9.5 2.8c23 7 29.7 7.9 56.6 8.1 21.5.1 26.5-.1 37.8-2.1 22.9-3.9 36.4-8.4 51.3-17.2 12.2-7.1 18.5-12.2 26.5-21.4 7.6-8.7 16.2-24.9 19.2-36 2.5-9.4 3.1-24.8 1.1-32.3-3.6-14.1-13.6-30.5-25-40.9-9.4-8.6-29.6-19.7-45.1-24.6-13.7-4.4-41.3-5.9-58.8-3.1zm-339.4 29.5c24.7 3.7 49.9 12.7 71.4 25.5 4.3 2.6 10 5.4 12.7 6.3l4.9 1.7-5.5 2.3c-3 1.2-9.2 4.4-13.9 7.2l-8.4 5-12.5-6c-21.9-10.5-33-13.1-55.5-13.4-12.4-.1-16.5.2-23.5 2-22.8 5.8-40.1 18.9-44.5 33.8-2.3 7.5-1.9 13.2 1.4 20.2 5.3 11.2 15.9 17 35 18.9 8.8 1 24.8-2 35.9-6.6l9.3-3.9 15.7 9c8.6 4.9 16.7 9.2 18 9.5 1.2.4 2.2.9 2.2 1.3 0 .3-3.1 1.8-6.8 3.2-3.7 1.5-12.8 5.2-20.2 8.2-16.7 6.9-25.5 9.2-40.8 10.8-20.1 2-36.3-1-56.1-10.4-8.4-3.9-21.6-16.5-25.9-24.5-8.2-15.4-9.7-28.6-4.8-43.2 4.1-12.1 7.6-18.5 14.5-26.6 16.9-19.8 42.5-29.1 86.4-31.2 2.1-.1 7.1.3 11 .9zM947 287.6c12.2 1.2 23.3 5.6 36.1 14 3.7 2.4 7.2 4.4 7.8 4.4.6 0 1.1.4 1.1 1s-4.3 1-10.7 1.1c-12.3 0-25.8 1.7-35.4 4.4l-6.5 1.8-14-9.9c-7.7-5.4-15-10.6-16.4-11.5-2.3-1.5-2.3-1.6 4.1-3.4 6.4-1.9 20.2-3.5 24.9-2.9 1.4.2 5.4.6 9 1zm-52.3 25c8.5 5.8 15.3 10.7 15.1 10.9-.2.1-4.6 1.9-9.8 4-5.2 2.1-11.7 4.8-14.4 6.1l-4.8 2.3-7.7-5.8c-4.2-3.1-10.5-7.7-14-10-5.6-3.8-6.1-4.5-4.8-5.8 1.8-1.9 21.7-12.2 23.5-12.3.8 0 8.3 4.8 16.9 10.6zM774 304.5c12.4 1.7 17.3 3 34.3 9.7 11.4 4.5 15.2 6.8 11.4 6.8-.7 0-7.1 3.4-14.1 7.6l-12.8 7.7-8.7-2.7c-24.6-7.6-43-8.6-50.1-2.8-2.2 1.8-2.2 1.9-.6 5 1.6 3.2 1.7 3.2 9.7 3.2 6.3 0 10 .7 17.5 3.1 5.2 1.7 9.4 3.5 9.4 3.8 0 1.5-17 5.1-23.6 5.1-23.2-.2-35.6-10.7-29.9-25.6 4.1-10.7 25.2-21.4 44-22.2 1.7-.1 7.7.5 13.5 1.3zm217.8 16.7c9.7 1.3 10.2 1.9 12.2 11.5 1 5.1 1 8-.1 15.8-.8 6.3-1.7 9.4-2.4 9.1-.6-.2-11.6-7.7-24.4-16.7-26.1-18.4-25.4-16.8-9.6-19.3 11.7-1.8 14.3-1.8 24.3-.4zm-143.9 16.5c12.8 8.8 14 9.9 12.4 11.1-1 .7-6.7 4.5-12.7 8.3l-10.9 7-3.2-2.3c-1.7-1.3-8.2-5.9-14.3-10.3-6.1-4.4-11.2-8.3-11.2-8.6 0-.4 4.7-3.5 10.4-6.9 5.8-3.4 11-6.8 11.7-7.6.7-.8 1.8-1.3 2.4-1 .7.2 7.6 4.9 15.4 10.3zm186.6 1.8c10.6 10.3 15.7 24.5 12.5 34.8-.8 2.3-1.5 4.3-1.6 4.5-.3.5-13.3-5.6-24.3-11.5-8.7-4.7-10.1-5.7-8.4-6.4 3.7-1.4 5.8-9 5.8-21.5v-11.1l4.9 2.6c2.7 1.4 7.7 5.3 11.1 8.6zm-85.4 9.6c19.9 13.2 32.4 20.6 43.2 25.3.8.4.5 1-1 2.1-1.2.9-4.8 3.8-8 6.3-3.2 2.6-8.3 6-11.4 7.6l-5.6 2.9-11.4-5.7c-6.6-3.4-22.4-13.4-37.8-24-25.4-17.5-26.2-18.1-23.5-19.1 1.5-.6 8.7-3.3 15.9-6.2 7.1-2.8 13.6-5.2 14.3-5.2.7-.1 12.1 7.1 25.3 16zm-64 14.6c19.1 13.5 32.7 22.3 44.2 28.6 8.8 4.8 11.4 6.6 10.1 7.1-3.4 1.3-24.8.7-32.4-.9-16-3.3-27.8-8.1-45.2-18.4-4.6-2.7-10.1-5.6-12.3-6.5-3-1.3-3.6-1.9-2.5-2.6 9.3-5.1 26.7-14 27.6-14 .6 0 5.3 3 10.5 6.7zm139.2 26.2c2 .7 3.7 1.6 3.7 2.1 0 1-12.2 4.8-19.5 6-6.9 1.1-17.2 1.2-19.9.1-1.5-.6-1-1.3 3.7-4.9 3.1-2.3 7-5.9 8.8-8l3.3-3.9 8 3.7c4.5 2 9.8 4.2 11.9 4.9z"/>
</svg>
