<svg id="SkmgrebFbjz" data-name="Layer 1" xmlns="http://www.w3.org/2000/svg" xmlns:xlink="http://www.w3.org/1999/xlink" viewBox="0 0 335.28 297.96">
    <style xmlns="http://www.w3.org/1999/xhtml">
        @-webkit-keyframes r1fbrxbFWjf_H1DJGt-jM_Animation{0%{-webkit-transform: rotate(0deg);transform: rotate(0deg);}100%{-webkit-transform: rotate(-360deg);transform: rotate(-360deg);}}@keyframes r1fbrxbFWjf_H1DJGt-jM_Animation{0%{-webkit-transform: rotate(0deg);transform: rotate(0deg);}100%{-webkit-transform: rotate(-360deg);transform: rotate(-360deg);}}@-webkit-keyframes HJjxrlZtZoM_BJfDWYbjG_Animation{0%{-webkit-transform: rotate(0deg);transform: rotate(0deg);}100%{-webkit-transform: rotate(-360deg);transform: rotate(-360deg);}}@keyframes HJjxrlZtZoM_BJfDWYbjG_Animation{0%{-webkit-transform: rotate(0deg);transform: rotate(0deg);}100%{-webkit-transform: rotate(-360deg);transform: rotate(-360deg);}}#SkmgrebFbjz *{-webkit-animation-duration: 3s;animation-duration: 3s;-webkit-animation-iteration-count: infinite;animation-iteration-count: infinite;-webkit-animation-timing-function: cubic-bezier(0, 0, 1, 1);animation-timing-function: cubic-bezier(0, 0, 1, 1);transform-box: fill-box;-webkit-transform-origin: 50% 50%;transform-origin: 50% 50%;}#HJEeSebK-oz{fill: #231f20;stroke: #231f20;stroke-miterlimit: 10;stroke-width: 2px;}#rJHereWt-jG{isolation: isolate;}#SJUgBlZYWoz{opacity: 0;}#ryveHxWYZjM{-webkit-clip-path: url(#clip-path);clip-path: url(#clip-path);}#Sy_xrxWtWsM{fill: #343334;}#HJFlSeZFZoG{-webkit-clip-path: url(#clip-path-2);clip-path: url(#clip-path-2);}#rycxBxWYWsG{stroke: #231f20;stroke-miterlimit: 10;stroke-width: 4px;}#HJjxrlZtZoM{fill: #231f20;stroke: #231f20;stroke-miterlimit: 10;}#rJ2eSgWKbsG{fill: #231f20;stroke: #231f20;stroke-miterlimit: 10;stroke-width: 2px;}#HypxHeZt-jf{fill: #231f20;stroke: #231f20;stroke-miterlimit: 10;stroke-width: 2px;}#SJAgHxbYbiz{isolation: isolate;}#H1ybBxbKWiM{opacity: 0;}#rkeWBgWKZsz{stroke-miterlimit: 10;fill: #343334;stroke-width: 4px;stroke: #000;}#Bk-brl-Fboz{stroke-miterlimit: 10;stroke-width: 4px;stroke: #000;}#r1fbrxbFWjf{fill: #231f20;stroke-miterlimit: 10;stroke: #000;}#HJ7-SxbtZjz{fill: #231f20;}#S1V-SlZKZjM{fill: #e6e7e8;}#ryHWBgWFZoG{fill: #e6e7e8;}#rkL-HlWY-oG{fill: #231f20;stroke: #231f20;stroke-miterlimit: 10;stroke-width: 2px;}#HJjxrlZtZoM_H1Gf-YZiz{-webkit-transform-origin: 50% 50%;transform-origin: 50% 50%;-webkit-transform: rotate(720deg);transform: rotate(720deg);}#HJjxrlZtZoM_BJfDWYbjG{-webkit-transform-origin: 50% 50%;transform-origin: 50% 50%;-webkit-transform: rotate(0deg);transform: rotate(0deg);-webkit-animation-name: HJjxrlZtZoM_BJfDWYbjG_Animation;animation-name: HJjxrlZtZoM_BJfDWYbjG_Animation;}#SJAgHxbYbiz_Hy82ZtZsM{-webkit-transform-origin: 50% 50%;transform-origin: 50% 50%;-webkit-transform: rotate(-360deg);transform: rotate(-360deg);}#r1fbrxbFWjf_H1DJGt-jM{-webkit-animation-name: r1fbrxbFWjf_H1DJGt-jM_Animation;animation-name: r1fbrxbFWjf_H1DJGt-jM_Animation;-webkit-transform-origin: 50% 50%;transform-origin: 50% 50%;-webkit-transform: rotate(0deg);transform: rotate(0deg);}
    </style>
    <defs>
        <clipPath id="clip-path">
            <rect id="SVGID" class="cls-1" x="1.83" y="68.36" width="217.88" height="225.77"/>
        </clipPath>
        <clipPath id="clip-path-2">
            <rect id="SVGID-2" data-name="SVGID" class="cls-1" y="66.54" width="221.53" height="229.42"/>
        </clipPath>
    </defs>
    <title>
        Artboard 1
    </title>
    <path d="M110.09,180.8c-1.62,0-2.93-.6-2.93-1.35v-162c0-.74,1.31-1.35,2.93-1.35s2.93.61,2.93,1.35v162c0,.74-1.31,1.35-2.93,1.35" id="HJEeSebK-oz"/>
    <g id="rJHereWt-jG">
        <g id="SJUgBlZYWoz">
            <g id="ryveHxWYZjM">
                <path d="M219.7,181.25c0,62.34-48.77,112.89-108.94,112.89S1.83,243.59,1.83,181.25,50.6,68.36,110.76,68.36,219.7,118.9,219.7,181.25" id="Sy_xrxWtWsM"/>
            </g>
        </g>
        <g id="HJFlSeZFZoG">
            <path d="M110.76,292.52C51.52,292.52,3.32,242.6,3.32,181.25S51.52,70,110.76,70,218.2,119.89,218.2,181.25,170,292.52,110.76,292.52m0-219c-57.29,0-103.9,48.33-103.9,107.73S53.47,289,110.76,289s103.9-48.33,103.9-107.73S168.05,73.52,110.76,73.52" id="rycxBxWYWsG"/>
        </g>
    </g>
    <g id="HJjxrlZtZoM_BJfDWYbjG" data-animator-group="true" data-animator-type="1">
        <polygon points="191.09 253.36 117.11 187.43 181.73 263.17 116.32 188.16 171.26 271.69 115.44 188.78 159.83 278.79 114.49 189.29 147.64 284.35 113.49 189.67 134.87 288.28 112.45 189.92 121.73 290.52 111.39 190.03 108.41 291.05 110.33 190 95.14 289.84 109.28 189.84 82.13 286.92 108.25 189.53 69.56 282.32 107.27 189.1 57.65 276.14 106.35 188.55 46.59 268.46 105.5 187.88 36.54 259.4 104.74 187.1 27.66 249.12 104.08 186.23 20.11 237.76 103.54 185.29 13.98 225.51 103.11 184.28 9.39 212.56 102.8 183.22 6.4 199.12 102.63 182.13 5.06 185.4 102.59 181.03 5.4 171.61 102.68 179.93 7.4 157.97 102.91 178.85 11.03 144.7 103.26 177.81 16.25 132.01 103.74 176.83 22.95 120.09 104.33 175.91 31.05 109.14 105.03 175.08 40.41 99.33 105.83 174.34 50.89 90.81 106.71 173.72 62.31 83.71 107.65 173.21 74.5 78.15 108.65 172.83 87.27 74.22 109.69 172.58 100.42 71.97 110.75 172.47 113.73 71.46 111.82 172.5 127 72.66 112.87 172.66 140.02 75.59 113.89 172.97 152.58 80.18 114.88 173.4 164.49 86.36 115.8 173.95 175.56 94.04 116.64 174.62 185.61 103.1 117.4 175.4 194.48 113.38 118.06 176.26 202.04 124.74 118.61 177.21 208.16 136.99 119.04 178.22 212.75 149.94 119.34 179.28 215.74 163.38 119.51 180.36 217.08 177.1 119.56 181.47 216.75 190.89 119.46 182.57 214.75 204.52 119.24 183.65 211.11 217.8 118.88 184.69 205.9 230.49 118.4 185.67 199.19 242.4 117.81 186.59 191.09 253.36" id="HJjxrlZtZoM"/>
    </g>
    <path d="M265,139.15C250,114.76,228.91,94.26,202.4,78.2c-45-27.28-90.81-32.31-91.27-32.36-.71-.09-1.34.59-1.4,1.47a1.75,1.75,0,0,0,.57,1.46s0,0,0,.06a1.55,1.55,0,0,0,1.17,1.75c.45,0,45.18,5.08,89.15,32.26,40.42,25,88.46,74.42,87.82,168a1.49,1.49,0,0,0,1.26,1.63h0a1.47,1.47,0,0,0,1.28-1.6c0-.44,0-.87,0-1.31a1.1,1.1,0,0,0,.7.27h0a1.47,1.47,0,0,0,1.29-1.59C293.28,206.36,283.88,169.67,265,139.15Z" id="rJ2eSgWKbsG"/>
    <path d="M196.68,77.14a1.47,1.47,0,0,0,1.47-1.46v-12a1.46,1.46,0,1,0-2.93,0v12a1.46,1.46,0,0,0,1.46,1.46" id="HypxHeZt-jf"/>
    <g id="SJAgHxbYbiz">
        <g id="H1ybBxbKWiM">
            <path d="M331.82,252c0,23.49-18.27,42.52-40.8,42.52s-40.8-19-40.8-42.52,18.27-42.52,40.8-42.52,40.8,19,40.8,42.52" id="rkeWBgWKZsz"/>
        </g>
        <path d="M291,296c-23.3,0-42.26-19.73-42.26-44s19-44,42.26-44,42.27,19.73,42.27,44-19,44-42.27,44m0-85c-21.69,0-39.33,18.42-39.33,41.06S269.33,293,291,293s39.34-18.42,39.34-41.06S312.71,210.91,291,210.91" id="Bk-brl-Fboz"/>
    </g>
    <g id="r1fbrxbFWjf_H1DJGt-jM" data-animator-group="true" data-animator-type="1">
        <polygon points="321.34 279.79 293.07 254.59 317.76 283.54 292.76 254.88 313.76 286.8 292.43 255.12 309.39 289.51 292.06 255.31 304.74 291.63 291.69 255.45 299.85 293.14 291.29 255.55 294.83 293.99 290.88 255.59 289.74 294.19 290.47 255.58 284.67 293.73 290.07 255.52 279.7 292.61 289.68 255.4 274.9 290.86 289.31 255.24 270.35 288.5 288.96 255.02 266.12 285.56 288.63 254.77 262.28 282.1 288.34 254.47 258.89 278.17 288.09 254.14 256 273.83 287.88 253.78 253.66 269.15 287.72 253.4 251.91 264.2 287.6 252.99 250.76 259.07 287.53 252.57 250.25 253.82 287.52 252.15 250.38 248.55 287.55 251.73 251.15 243.34 287.64 251.32 252.53 238.27 287.77 250.92 254.52 233.42 287.96 250.55 257.09 228.87 288.18 250.19 260.18 224.68 288.45 249.88 263.76 220.93 288.76 249.6 267.76 217.68 289.09 249.36 272.12 214.96 289.45 249.16 276.79 212.84 289.83 249.02 281.66 211.34 290.23 248.92 286.69 210.48 290.64 248.88 291.77 210.28 291.04 248.89 296.85 210.74 291.44 248.96 301.82 211.86 291.84 249.07 306.62 213.61 292.21 249.24 311.17 215.97 292.56 249.45 315.4 218.91 292.89 249.7 319.24 222.37 293.18 250 322.63 226.3 293.43 250.33 325.52 230.64 293.64 250.7 327.86 235.32 293.8 251.08 329.62 240.27 293.92 251.48 330.76 245.41 293.99 251.9 331.27 250.65 294 252.32 331.14 255.92 293.97 252.74 330.38 261.13 293.88 253.15 328.99 266.2 293.74 253.55 326.99 271.05 293.56 253.93 324.43 275.61 293.33 254.28 321.34 279.79" id="r1fbrxbFWjf"/>
    </g>
    <path d="M171.43,55s18.13,2.22,27.44-.55,30.87-15.56,23-2.22-23.52,18.89-49,7.22c0,0-4.9-2.22-1.47-4.45" id="HJ7-SxbtZjz"/>
    <circle cx="110.3" cy="181.84" r="5.34" id="S1V-SlZKZjM"/>
    <circle cx="290.98" cy="251.99" r="3.35" id="ryHWBgWFZoG"/>
    <path d="M110.79,30.62a2.9,2.9,0,0,1-.18-5.79L140,23l2.36-19.45a2.9,2.9,0,0,1,4.23-2.21l22.5,11.91a2.9,2.9,0,0,1-2.71,5.13L147.58,8.44l-2.14,17.65a2.9,2.9,0,0,1-2.7,2.54l-31.76,2Z" id="rkL-HlWY-oG"/>
</svg>
