<svg version="1.1" id="Layer_1" xmlns="http://www.w3.org/2000/svg" xmlns:xlink="http://www.w3.org/1999/xlink" x="0px" y="0px"
	 viewBox="0 0 362.59 364.37" style="enable-background:new 0 0 362.59 364.37;" xml:space="preserve">
<g>
	<g>
		<path d="M99.32,284.1c2.94,1.04,6.57,0.17,7.95-2.16c1.47-2.33,0.09-5.18-2.85-6.22c-3.02-1.04-6.65-0.09-8.04,2.25
			C95,280.22,96.29,283.07,99.32,284.1z"/>
		<path d="M100.79,319.87c1.72-2.72,2.73-4.56,3.88-7.09c0.04,11.2,6.82,14.12,13.66,11.41c5.09-2.05,8.39-5.89,11.59-12.05
			c-0.07,9.73,5.13,12.55,8.8,12.48c5.53-0.17,15.86-12.6,19.59-24.84c0.13-0.44,0.33-0.97,0.56-1.57
			c5.94-9.23,25.63-16.94,36.8-13.11c0.61,0.26,1.21,0.43,1.73,0.69c-5.18,6.22-8.29,13.13-8.21,19.01
			c0.17,11.66,14.26,14.34,20.3,2.16c3.63-7.43,1.47-16.16-7.78-22.12c7.6-8.04,18.58-14.78,28.77-15.29
			c14.69-0.69,18.58,12.36,13.65,30.15c-6.57,23.42-20.3,30.24-28.25,24.37c-3.89-2.85-3.89-10.63,2.59-14v0.17
			c-2.94,12.18-1.04,13.65,3.37,14.17h0.78c0.52-2.07,7.43-28.43,8.21-31.79c0.69-2.68,1.47-6.22,1.99-8.12
			c2.59-9.42,1.3-13.39-4.84-12.53c-0.43,0.09-0.69,0.17-0.69,0.17s-0.6,5.27-3.71,17.62c-0.86,3.63-2.42,9.24-4.49,17.88
			c-8.38,3.46-10.71,13.22-4.58,17.63c9.85,7.17,30.59,0.43,37.24-25.14c5.1-19.61-0.78-33.96-19.96-32.75
			c-12.79,0.86-24.54,7.69-32.4,16.16c-1.3-0.69-2.68-1.29-4.23-1.9c-12.44-4.75-26.63-0.8-35.79,3.18
			c-0.17,0.08-0.33,0.15-0.5,0.23c-0.09,0.04-0.19,0.09-0.28,0.13c-0.21,0.1-0.43,0.2-0.63,0.3c-0.1,0.05-0.21,0.11-0.31,0.16
			c-0.67,0.34-1.28,0.69-1.81,1.05c-0.54,0.33-1.1,0.69-1.71,1.11c-3.33,2.27-4.52,12.44-5.64,16.51
			c-2.85,10.37-6.05,17.97-8.81,18.06c-3.2,0.17-4.32-4.41-0.52-20.39c3.89-16.24,8.64-21.86,13.13-20.13
			c1.47,0.61,3.37-0.43,0.78-1.47c-8.12-3.02-17.11,4.41-21.51,21.17c-0.66,2.46-1.09,4.68-1.35,6.67
			c-4.04,8.42-7.61,12.12-11.18,13.63c-4.23,1.73-9.33-4.06-5.01-19.87c4.67-17.19,12.53-21.43,15.03-17.28
			c2.07,3.46-0.78,6.65-5.01,6.05c-2.85-0.35-5.18,3.2-3.11,5.96c1.81,2.33,5.62,1.55,7.95-1.21c2.85-3.37,3.63-8.04,1.64-11.49
			c-3.37-5.88-18.66-3.54-24.19,17.54c-0.67,2.55-1.12,4.88-1.38,6.98c-2,4.7-3.1,7.09-5.01,10.04c-1.9,2.94-4.84,2.76-2.94-4.93
			c2.51-10.2,6.13-23.07,6.31-23.76c0,0-0.52-0.43-1.3-0.95c-2.68-1.81-6.22-1.99-8.81,8.21c-1.04,3.89-2.16,8.55-2.77,10.89
			C85.93,326.01,95.6,328.34,100.79,319.87z M199.73,287.01c7.52,4.58,8.73,12.79,5.7,18.83c-4.49,9.07-12.79,7.34-13.39-1.81
			C191.69,299.11,194.8,292.89,199.73,287.01z"/>
		<path d="M359.32,287.55c-3.02,1.47-6.57,1.38-9.76,0.52c-1.12-4.67-4.23-6.05-6.74-4.67c-2.76,1.55-1.38,3.46,0,4.49
			c0.35,0.35,0.86,0.52,1.3,0.78c-0.35,2.94-1.56,7.95-3.54,15.21c-2.85,10.37-6.05,17.97-8.81,18.06
			c-3.2,0.17-4.32-4.41-0.52-20.39c3.89-16.24,8.64-21.86,13.13-20.13c1.47,0.6,3.37-0.43,0.78-1.47
			c-8.12-3.03-17.11,4.41-21.51,21.17c-0.66,2.47-1.09,4.68-1.35,6.68c-4,8.39-7.35,11.96-10.92,13.62
			c-5.96,2.85-12.18-4.23-7.86-19.87c4.66-17.45,9.59-22.46,12.36-16.33c2.16,4.84-0.35,16.24-10.63,22.12
			c-1.56,0.86-1.64,2.85,0.09,1.9c11.75-6.31,21.17-18.14,17.45-24.88c-4.06-7.43-21.26-4.75-26.96,16.76
			c-0.7,2.66-1.14,5.09-1.35,7.3c-1.91,4.49-3,6.84-4.87,9.72c-1.9,2.94-4.84,2.77-2.94-4.92c1.99-7.86,8.73-33.96,9.25-35.77
			c2.59-9.76,0.95-13.39-4.92-12.53c-0.35,0.09-0.6,0.09-0.6,0.09s-0.43,3.97-3.46,16.24c-1.81,7.26-4.84,18.32-6.83,26.35
			c-0.04,0.18-0.08,0.35-0.12,0.52c-3.93,8.15-7.24,11.66-10.76,13.3c-5.96,2.85-12.18-4.23-7.86-19.87
			c4.67-17.45,9.59-22.46,12.36-16.33c2.16,4.84-0.35,16.24-10.63,22.12c-1.55,0.86-1.64,2.85,0.09,1.9
			c11.75-6.31,21.17-18.14,17.45-24.88c-4.06-7.43-21.25-4.75-26.96,16.76c-5.36,20.3,4.58,27.39,14.95,22.72
			c4.6-2.07,7.59-5.41,10.48-10.66c-1.31,12.77,6.79,13.75,11.38,6.25c1.72-2.72,2.73-4.56,3.88-7.08
			c0.4,11.56,8.28,15.16,16.43,11.49c5-2.26,8.11-6.01,11.25-12.1c-0.06,9.7,5.14,12.52,8.8,12.45c5.53-0.17,14-7.43,17.8-21.6
			c1.3-5.1,1.64-9.07,1.38-12.1c3.2,0.43,6.48,0.09,8.81-1.04c1.9-0.95,3.11-1.9,3.37-2.33
			C363.21,285.91,362.34,285.99,359.32,287.55z"/>
		<path d="M327.72,332.2c1.54,2.72-2.58,7.69-7.58,10.96c-12.96,8.79-58.13,5.26-117.31-5.39c-54.21-9.8-95.15-10.9-116.2-9.28
			c-4.28,0.33-7.71,0.77-10.42,1.25c1.51-5.49,10.02-36.4,11.12-41.21c0.35-1.73-0.26-1.99-12.7-5.62c0.52-2.76,1.3-4.49,1.3-4.49
			s-5.1-0.78-7.52,3.2c-1.3,2.16-0.95,3.71,3.11,5.53c-1.64,7.69-4.32,17.28-6.57,22.98c-0.28,0.74-0.48,1.33-0.62,1.83
			c-1.18,2.65-2.14,4.49-3.53,6.62c-1.9,2.94-4.67,2.76-2.85-4.93c1.04-4.58,1.3-5.62,3.11-12.01c5.62-20.65-1.56-23.76-8.29-17.71
			c-2.07,1.9-4.06,4.66-5.79,7.78c0-0.09,0.09-0.17,0.09-0.26c2.76-10.28,0.17-13.22-4.84-12.44c-0.43,0.09-0.6,0.09-0.6,0.09
			s-0.35,3.97-3.46,16.24c-0.68,2.62-1.11,4.49-2,8.34c-0.3,0.49-0.69,1.24-1.19,2.29c-3.02,6.13-9.76,17.97-17.37,18.75
			c-8.12,0.86-11.58-7.52-9.5-15.47c1.73-6.48,6.05-12.36,12.44-12.36c0.52,0,1.04,0,1.47-0.09c4.06-0.35,2.59-2.07,1.21-2.07
			c-7.34,0-9.16-6.83-7.17-14.34c2.94-10.71,11.32-15.03,16.85-10.2c0.69,0.6,1.21,1.29,1.73,1.9c-8.47,6.05-8.12,12.53-4.06,13.82
			c6.13,1.99,10.02-6.31,7.17-12.7c1.21-0.6,2.68-1.29,4.41-1.9c11.75-4.41,28.25-3.37,37.41,6.13c0,0,0.26-0.26,0.69-0.52
			c5.79-4.41,3.8-8.55-3.54-10.88c-9.59-3.03-21.77-3.28-34.04,1.73c-2.42,1.04-4.58,2.07-6.31,3.2c-0.6-0.69-1.3-1.38-2.07-1.99
			c-7.6-5.44-22.29-1.3-25.92,11.32c-2.25,7.43,0.6,13.65,6.65,15.81c-5.88,1.64-12.35,5.7-14.43,13.82
			c-2.51,9.68,3.46,18.32,15.81,16.93c9.27-1.09,14.74-9.54,18.26-16.77c-0.12,0.5-0.24,1.02-0.37,1.57
			c-2.94,12.1-1.04,13.65,3.37,14.08c0.43,0.09,0.78,0.09,0.78,0.09c0.35-1.47,2.94-12.01,4.92-19.7l0.52-1.9l0.52-2.16
			c2.16-7.52,5.53-13.48,8.9-16.68c3.2-3.03,4.23,0.52,0.09,15.72l-1.99,7.86c-4.41,17.97,5.1,19.35,10.28,10.88
			c2.68-4.23,3.63-6.31,6.05-12.18c0.42-1.04,0.74-1.94,0.95-2.63c0.07-0.19,0.15-0.38,0.22-0.57c1.73-4.82,3.41-10.87,4.72-16.48
			l2.68,0.87c2.16,0.78,1.99,2.51,1.47,5.27c-0.86,4.06-3.02,13.74-8.47,32.92l-1.04,3.46c-4.92,0.69-9.68,2.07-14.08,4.58
			c-10.89,6.13-16.42,17.54-12.87,24.97c4.54,9.33,23.68,4.99,34.45-28.15c22.85-3.49,62.68,0.94,101.61,8.3
			c48.71,9.12,99.34,16.51,126.7,11.6c11.26-2.02,14.77-3.53,19.76-6.85C335.16,337.27,326.83,330.63,327.72,332.2z M35.73,274.25
			c1.9,5.01-0.95,10.2-3.71,8.99C29.77,282.46,28.9,278.4,35.73,274.25z M49.46,358.01c-4.06-4.84-1.21-15.9,5.62-21.08
			c3.28-2.51,7.78-4.15,13.05-4.93c-0.05,0.15-0.09,0.29-0.14,0.44c-0.02,0.04-0.04,0.09-0.04,0.13
			C59.57,359.69,53.58,362.73,49.46,358.01z"/>
	</g>
	<g>
		<path d="M322.38,278.43l10.66-0.48c0.72-0.47,1.45-0.88,2.2-1.23l-15.53,0.52C320.66,277.54,321.56,277.93,322.38,278.43z"/>
		<path d="M325.12,280.77l4.17,0.36c0.36-0.38,0.74-0.75,1.11-1.09l-6.68-0.65C324.23,279.8,324.7,280.26,325.12,280.77z"/>
		<path d="M306.51,232.17c-1.22,0-2.43,0.06-3.63,0.17c-4.65-20.03-12.11-38.42-22.35-55c-15.14-24.52-36.32-45.14-62.96-61.28
			c-1.26-0.76-2.52-1.51-3.77-2.23v-8.31c10.3-0.41,18.45-5.25,23.61-14.04c1.77-3,2.23-4.92,1.49-6.21
			c-0.48-0.84-1.4-1.27-2.72-1.27c-3.1,0-8.67,2.4-14.05,4.72c-3.36,1.45-6.53,2.81-8.89,3.52c-3.01,0.9-7.33,1.35-12.83,1.35
			c-7.3,0-14.13-0.83-14.2-0.83l-0.36-0.04l-0.3,0.2c-1.48,0.96-1.72,2-1.67,2.7c0.15,1.98,2.75,3.26,3.27,3.49
			c7.9,3.62,15.21,5.73,21.74,6.29v5.66c-35.54-19.38-69.31-25.55-80.2-27.13V70.14l28.78-1.8c1.88-0.12,3.4-1.55,3.63-3.42
			l1.96-16.21l17.49,9.26c0.56,0.3,1.19,0.45,1.82,0.45c1.45,0,2.77-0.8,3.45-2.08c0.49-0.92,0.59-1.97,0.28-2.97
			c-0.31-1-0.98-1.81-1.9-2.3l-22.5-11.91c-1.11-0.59-2.52-0.6-3.64-0.01c-1.14,0.59-1.91,1.71-2.06,2.99l-2.26,18.62l-25.06,1.57
			v-6.2c0-1.36-1.65-2.35-3.93-2.35c-2.28,0-3.93,0.99-3.93,2.35v50.67C62.6,109.3,15.98,159.1,15.98,219.96
			c0,15.15,2.9,29.6,8.14,42.82c0.75-0.08,1.5-0.14,2.23-0.14c2.24,0,4.37,0.37,6.32,1.06c-0.02-0.05-0.05-0.1-0.07-0.15
			l78.11-35.08l-49.98,31.44c0.51-0.02,1.03-0.04,1.54-0.04c0.38,0,0.75,0.01,1.12,0.02l48.31-29.64L74.09,261.2
			c0.61,0.14,1.22,0.29,1.82,0.46l37-29.77L82.43,264.2c0.48,0.28,0.91,0.57,1.31,0.87l30.56-31.7l-26.91,36.81
			c0.04,0.16,0.07,0.32,0.1,0.47c0.1,0.55,0.14,1.17,0.09,1.83l28.29-37.84L92.98,275.8c0.01,0.01,0.02,0.02,0.02,0.03
			c0.84-1.36,2.07-2.47,3.56-3.25l21.02-36.87l-14.43,35.68c0.55,0.06,1.09,0.15,1.62,0.28l14.64-35.12l-10.09,37.61
			c0.47,0.46,0.89,0.96,1.24,1.51l10.78-38.53l-6.11,43.27c0.57-0.38,1.14-0.72,1.72-1.03l6.38-41.92l-0.76,39.98
			c0.53-0.08,1.06-0.13,1.59-0.16l1.17-39.77l4.18,40.67c0.59,0.25,1.15,0.55,1.66,0.89l-3.85-41.78l10.05,44.09
			c0.42-0.44,0.86-0.85,1.3-1.24l-9.4-43.34l14.46,40.1c0.48-0.2,0.97-0.38,1.47-0.53l-14.06-40.3l20.16,39.8
			c0.64,0.09,1.27,0.2,1.9,0.37l-20.29-41.15l29.72,44.15c0.46-0.16,0.93-0.33,1.41-0.49l-29.5-44.86l37.28,42.75
			c0.52-0.11,1.05-0.21,1.59-0.31l-37.4-43.84l48.27,43.02c0.71,0.03,1.4,0.06,2.09,0.12l-49.08-44.71l64.9,44.52
			c0.31-0.26,0.64-0.5,0.96-0.75l-64.78-45.49l75.71,38.78c0.42-0.2,0.85-0.38,1.28-0.56l-76.11-40.06l81.73,29.34
			c-1.24,3.47-2.67,6.86-4.24,10.15c3.09-1.23,6.27-2.16,9.48-2.75c5.57-13.57,8.65-28.49,8.65-44.13
			c0-61.33-47.34-111.42-106.18-113.21V90.65c9.9,1.48,48.38,8.45,86.06,31.76c31.23,19.31,67.02,53.29,81.15,111.11
			c-19.29,4.96-33.63,23.09-33.63,44.63c0,0.76,0.02,1.52,0.06,2.27c2.26-1.59,4.6-2.66,6.91-3.25c0.02-0.54,0.02-1.07,0.06-1.6
			l14.56,1.41c0.1-0.4,0.19-0.8,0.28-1.18l-14.76-1.26c0.11-1.27,0.28-2.52,0.51-3.75l14.63,3.37c0.09-0.4,0.18-0.8,0.27-1.18
			l-14.7-3.21c0.26-1.24,0.58-2.46,0.95-3.66l14.1,5.24c0.09-0.42,0.18-0.82,0.25-1.19l-14.04-5.04c0.41-1.2,0.87-2.38,1.39-3.52
			l13,6.84c0.09-0.45,0.17-0.87,0.24-1.23l-12.8-6.56c0.55-1.14,1.15-2.25,1.8-3.32l11.33,7.96c0.08-0.48,0.11-0.72,0.11-0.72
			c0.02-0.2,0.07-0.38,0.11-0.57l-11.01-7.55c0.68-1.06,1.41-2.09,2.19-3.08l9.78,8.91c0.27-0.29,0.59-0.54,0.94-0.74l-10.06-8.96
			c0.8-0.97,1.65-1.89,2.54-2.77l9.52,11.16c0.51-0.07,0.99-0.12,1.46-0.14l-10.24-11.74c0.92-0.86,1.87-1.67,2.86-2.43l9.35,14.22
			c0.64,0.08,1.2,0.22,1.72,0.39l-10.25-15.22c1.01-0.73,2.06-1.42,3.14-2.04l8.94,18.13c0.8,0.52,1.41,1.12,1.85,1.69
			c0.9,1.17,1.46,2.59,1.7,4.32v0c0.01,0.06,0.01,0.13,0.02,0.2c0.02,0.06,0.02,0.12,0.03,0.17c0.28,2.58-0.13,5.83-1.23,9.97
			c-0.01,0.03-0.01,0.05-0.02,0.07c-0.15,0.53-0.94,3.55-2.01,7.67l0.74-0.59l-0.8,0.85c-0.12,0.46-0.24,0.92-0.36,1.4
			c1.41-2.11,2.97-3.9,4.61-5.4c0,0.01,0,0.01,0,0.02c1.54-1.41,3.15-2.56,4.78-3.46c0.04-0.02,0.07-0.04,0.1-0.06
			c0.28-0.15,0.55-0.29,0.83-0.43c0.13-0.06,0.25-0.12,0.38-0.18c0.21-0.1,0.43-0.2,0.64-0.29c0.23-0.1,0.46-0.19,0.69-0.27
			c0.13-0.05,0.26-0.1,0.38-0.15c1.99-0.7,3.96-1.05,5.84-1.05c1.09,0,2.14,0.13,3.14,0.35l24.76-4.37
			c0.13,0.95,0.22,1.91,0.28,2.88c0.95,0.15,1.88,0.38,2.8,0.73c0.03,0.01,0.06,0.02,0.09,0.04c3.56,1.42,3.87,3.88,3.78,5.1
			c0.08,0.08,0.15,0.17,0.23,0.25c0.08-1.13,0.14-2.27,0.14-3.43C350.78,252.8,330.92,232.17,306.51,232.17z M120.82,114.34v57.94
			l-5.91-57.5C116.86,114.58,118.83,114.44,120.82,114.34z M113.85,114.92l6.96,75.53v8.45l-18.66-81.88
			C105.98,116.08,109.88,115.38,113.85,114.92z M28.76,186.47l80.81,30.04L25.7,198.17C26.51,194.19,27.53,190.28,28.76,186.47z
			 M25.49,199.23l83.67,19.29l-85.29-7.29C24.19,207.15,24.73,203.15,25.49,199.23z M23.52,219.96c0-2.58,0.09-5.13,0.27-7.66
			l85.21,8.26l-85.38,3.83C23.55,222.91,23.52,221.44,23.52,219.96z M23.65,225.46l85.41-2.86l-84.14,14.86
			C24.29,233.52,23.86,229.52,23.65,225.46z M25.09,238.52l84.28-13.9l-81.59,25.63C26.68,246.42,25.78,242.51,25.09,238.52z
			 M32.17,262.56c-1.56-3.66-2.93-7.42-4.08-11.27l81.84-24.7L32.17,262.56z M29.1,185.45c1.28-3.85,2.77-7.6,4.46-11.23
			l76.65,40.35L29.1,185.45z M34.02,173.26c1.74-3.65,3.67-7.18,5.79-10.58l71.27,50.05L34.02,173.26z M40.38,161.77
			c2.17-3.4,4.51-6.65,7.03-9.76L112.15,211L40.38,161.77z M48.09,151.18c2.56-3.09,5.29-6.03,8.17-8.79l57.19,67.04L48.09,151.18z
			 M57.02,141.65c2.91-2.74,5.97-5.3,9.17-7.68l48.71,74.06L57.02,141.65z M67.06,133.34c3.22-2.34,6.57-4.5,10.05-6.45l39.43,79.94
			L67.06,133.34z M78.04,126.38c3.48-1.9,7.07-3.61,10.77-5.09l29.49,84.56L78.04,126.38z M89.8,120.9
			c3.68-1.43,7.46-2.64,11.33-3.63l19.05,87.84L89.8,120.9z M124.95,225.89c-2.95,0-5.34-2.39-5.34-5.34c0-2.95,2.39-5.34,5.34-5.34
			c2.95,0,5.34,2.39,5.34,5.34C130.29,223.5,127.9,225.89,124.95,225.89z M221.32,255.68l-81.44-30.27l84.79,18.53
			C223.77,247.95,222.65,251.87,221.32,255.68z M224.89,242.9l-84.6-19.49l86.49,7.4C226.38,234.91,225.74,238.95,224.89,242.9z
			 M227.32,219.96c0,3.3-0.15,6.56-0.44,9.79l-86.42-8.38l86.83-3.89C227.3,218.3,227.32,219.13,227.32,219.96z M227.25,216.42
			l-86.87,2.9l85.8-15.15C226.76,208.19,227.12,212.27,227.25,216.42z M226.02,203.12l-85.94,14.18l83.39-26.19
			C224.53,195.03,225.39,199.04,226.02,203.12z M223.17,190.09l-83.64,25.25l79.62-36.84C220.7,182.26,222.04,186.12,223.17,190.09z
			 M218.74,177.52l-79.99,35.93l74.57-46.9C215.33,170.08,217.13,173.74,218.74,177.52z M212.8,165.63l-75.05,46.04l68.33-56.23
			C208.51,158.69,210.75,162.09,212.8,165.63z M205.45,154.59l-68.9,55.44l61.01-64.67C200.36,148.27,202.99,151.36,205.45,154.59z
			 M196.82,144.6l-61.67,63.96l52.71-72.1C191,139,193.99,141.72,196.82,144.6z M187.03,135.81l-53.45,71.47l43.57-78.37
			C180.58,131.01,183.88,133.32,187.03,135.81z M176.25,128.35l-44.38,77.86l33.73-83.4C169.27,124.45,172.83,126.3,176.25,128.35z
			 M164.64,122.38l-34.61,83l23.37-87.1C157.24,119.43,161,120.8,164.64,122.38z M152.39,118l-23.71,84.79v-1.97l12.07-85.38
			C144.7,116.05,148.59,116.91,152.39,118z M139.7,115.27l-11.02,72.46V114.3C132.4,114.42,136.08,114.75,139.7,115.27z
			 M320.65,242.01l-10.88,26.11l7.35-27.41C318.33,241.09,319.5,241.52,320.65,242.01z M316.14,240.42l-7.37,26.34
			c0-0.07-0.01-0.14-0.01-0.21c-0.02-0.09-0.04-0.18-0.06-0.27l3.77-26.68C313.71,239.81,314.94,240.08,316.14,240.42z
			 M311.46,239.45l-3.7,24.34c-0.13-1.49-0.26-2.97-0.41-4.44l0.38-20.22C308.98,239.17,310.23,239.28,311.46,239.45z M306.51,239.1
			c0.06,0,0.12,0,0.18,0l-0.36,12.19c-0.39-2.67-0.88-6-0.9-6.23c-0.33-1.98-0.7-3.94-1.08-5.88
			C305.07,239.13,305.79,239.1,306.51,239.1z M297.25,240.31l1.28,5.92c0.18,1.33,0.84,5.45,0.92,5.44
			c0.45,2.96,0.84,5.98,1.18,9.06l-6.95-19.26C294.86,241.02,296.04,240.64,297.25,240.31z M289.36,243.48
			c1.1-0.6,2.22-1.14,3.38-1.62l8.42,24.14c0.03,0.3,0.04,0.6,0.07,0.9L289.36,243.48z M321.59,242.44
			c1.14,0.53,2.26,1.12,3.34,1.77l-13.96,24.49L321.59,242.44z M325.81,244.73c1.07,0.68,2.1,1.41,3.09,2.19L312.1,269.4
			L325.81,244.73z M329.7,247.58c0.97,0.81,1.91,1.67,2.8,2.58l-19.38,20.1L329.7,247.58z M333.22,250.9
			c0.87,0.93,1.69,1.9,2.46,2.92l-21.64,17.41L333.22,250.9z M336.3,254.64c0.75,1.03,1.45,2.1,2.09,3.21l-23.57,14.46L336.3,254.64
			z M315.47,273.49l23.43-14.74c0.62,1.12,1.18,2.27,1.69,3.46L315.47,273.49z M340.98,263.16c0.47,1.19,0.89,2.4,1.25,3.64
			l-26.27,7.93L340.98,263.16z M316.33,276.02l26.18-8.22c0.33,1.23,0.59,2.49,0.8,3.77L316.33,276.02z"/>
	</g>
</g>
<g>
	<path d="M96.01,21.23c1.25-0.9,3.38,0.21,3.62,3.21c0.05,0.62,0.02,1.18-0.08,1.75c1.01-0.49,1.88-1.62,2.38-3.21
		c-1.03-0.31-2.05-0.98-2.91-2.06c-1.46-1.78-2.1-4.37-0.35-5.76c2.23-1.74,4.36,0.85,4.5,4.04c0.06,1.4-0.15,2.68-0.54,3.73
		c1.65,0.29,3.22-0.39,4-2.07c0.14-0.35,0.16-0.31,0.19-0.13c-0.01,0.1-0.04,0.25-0.1,0.33c-0.74,1.65-2.42,2.37-4.17,2.07
		c-0.69,1.67-1.82,2.83-3.04,3.29c-0.55,2.73-2.7,4.63-4.6,4.99c-0.26,0.06-0.38-0.13,0.01-0.2c2.19-0.41,3.51-2.39,3.78-4.6
		c-0.66,0.08-1.31-0.05-1.87-0.44C95.21,25.14,94.41,22.42,96.01,21.23z M98.73,26.44c0.05-0.5,0.06-1,0.01-1.53
		c-0.26-2.56-1.81-4.01-2.7-3.4c-1.33,0.93-0.58,3.53,0.91,4.48C97.54,26.38,98.14,26.51,98.73,26.44z M102,22.79
		c0.24-0.86,0.4-1.86,0.38-2.97c-0.05-2.75-1.89-5.69-3.72-4.36c-1.44,1.12-0.83,3.73,0.56,5.35
		C100.05,21.81,101.01,22.46,102,22.79z"/>
	<path d="M121.23,8.28l1.71-0.43l6.93,9.61l1.48-11.75l1.71-0.43l3.1,12.18l-1.16,0.29l-2.68-10.53l-0.03,0.01l-1.49,11.59
		l-1.09,0.28l-6.86-9.47l-0.03,0.01l2.68,10.53l-1.16,0.29L121.23,8.28z"/>
	<path d="M140.07,3.91l1.31-0.25l7.16,11.44l-1.26,0.24l-2.23-3.56l-5.62,1.05l-0.77,4.12l-1.26,0.24L140.07,3.91z M139.61,11.77
		l4.86-0.91l-3.57-5.88L139.61,11.77z"/>
	<path d="M148.31,2.46l1.19-0.16l0.88,6.7l6.36-7.65l1.61-0.21l-4.89,5.88l6.79,6.54l-1.54,0.2l-6.03-5.81l-2.1,2.53l0.56,4.27
		l-1.19,0.16L148.31,2.46z"/>
	<path d="M160.53,0.96l8.65-0.66l0.08,1.02l-7.46,0.57l0.35,4.53l6.98-0.54l0.08,1.02l-6.98,0.54l0.38,4.95l7.54-0.58l0.08,1.02
		l-8.74,0.67L160.53,0.96z"/>
	<path d="M180.89,0.02L182.22,0l5.1,12.49l-1.29,0.02l-1.58-3.88l-5.72,0.08l-1.46,3.93l-1.29,0.02L180.89,0.02z M179.09,7.68
		l4.94-0.07l-2.51-6.41L179.09,7.68z"/>
	<path d="M193.78,0.19l1.28,0.12l1.85,11.22l0.04,0l4.04-10.68l1.49,0.13l2.08,11.24l0.04,0l3.85-10.7l1.19,0.11l-4.59,12.21
		l-1.26-0.11l-2.16-11.49l-0.04,0l-4.17,10.92l-1.3-0.12L193.78,0.19z"/>
	<path d="M211.89,2.08l1.18,0.17l-1.75,12.45l-1.18-0.17L211.89,2.08z"/>
	<path d="M215.48,11.11c-0.51,2.54,1.19,3.65,3.44,4.05c1.3,0.23,3.4-0.12,3.73-1.93c0.25-1.4-1.05-2.21-2.15-2.69l-2.64-1.17
		c-1.39-0.62-2.6-1.56-2.26-3.48c0.22-1.21,1.4-3.34,4.89-2.72c2.44,0.44,4.36,2.14,3.89,4.67l-1.18-0.21
		c0.27-1.9-1.12-3.13-2.87-3.45c-1.61-0.29-3.21,0.07-3.54,1.91c-0.21,1.16,0.57,1.8,1.53,2.22l2.88,1.28
		c1.67,0.78,2.99,1.8,2.62,3.83c-0.15,0.85-0.98,3.47-5.37,2.69c-2.93-0.52-4.84-2.23-4.16-5.22L215.48,11.11z"/>
	<path d="M228.25,4.92l1.16,0.28l-1.27,5.3l7.25,1.74l1.27-5.3l1.16,0.28l-2.93,12.22l-1.16-0.28l1.42-5.92l-7.25-1.74l-1.42,5.92
		l-1.16-0.28L228.25,4.92z"/>
	<path d="M260.2,23.63c-0.55,0.4-1.2,0.56-1.86,0.5c0.35,2.2,1.74,4.13,3.94,4.47c0.4,0.06,0.28,0.25,0.02,0.2
		c-1.91-0.29-4.12-2.11-4.77-4.82c-1.23-0.41-2.41-1.54-3.15-3.18c-1.73,0.36-3.44-0.31-4.24-1.92c-0.07-0.07-0.1-0.23-0.12-0.33
		c0.02-0.18,0.04-0.22,0.19,0.12c0.84,1.65,2.43,2.28,4.07,1.93c-0.44-1.04-0.69-2.3-0.68-3.71c0.02-3.19,2.06-5.86,4.35-4.2
		c1.8,1.34,1.24,3.95-0.15,5.78c-0.81,1.1-1.81,1.81-2.83,2.16c0.56,1.57,1.46,2.67,2.49,3.12c-0.12-0.56-0.17-1.12-0.14-1.75
		c0.14-3,2.23-4.19,3.51-3.34C262.49,19.78,261.79,22.53,260.2,23.63z M260.08,23.44c1.46-1,2.11-3.63,0.75-4.51
		c-0.91-0.58-2.42,0.93-2.58,3.5c-0.03,0.53-0.01,1.03,0.06,1.53C258.91,24.01,259.5,23.86,260.08,23.44z M257.63,18.33
		c1.33-1.66,1.85-4.29,0.37-5.36c-1.88-1.27-3.62,1.74-3.57,4.49c0.03,1.11,0.22,2.1,0.49,2.96
		C255.9,20.06,256.84,19.38,257.63,18.33z"/>
</g>
</svg>
