<svg viewBox="0 0 24 24" xmlns="http://www.w3.org/2000/svg"><path d="M12.186 24h-.007c-3.581-.024-6.334-1.205-8.184-3.509C2.35 18.44 1.5 15.586 1.5 12.007v-.006c0-3.579.85-6.437 2.494-8.492C5.845 1.205 8.598.024 12.18 0h.014c2.746.02 5.043.725 6.826 2.098 1.677 1.29 2.858 3.13 3.509 5.467l-2.04.569c-1.104-3.968-3.898-5.998-8.304-6.032-2.91.023-5.11.947-6.541 2.749-1.338 1.685-2.027 4.117-2.027 7.144v.006c0 3.027.69 5.459 2.027 7.144 1.43 1.802 3.63 2.726 6.541 2.749 2.623-.02 4.358-.63 5.8-2.04 1.647-1.613 1.616-3.593 1.088-4.79-.312-.71-.878-1.3-1.638-1.73-.192 1.352-.622 2.446-1.284 3.257-.884 1.08-2.133 1.673-3.71 1.702-1.199.023-2.35-.271-3.243-.83-1.056-.66-1.663-1.667-1.708-2.84-.088-2.318 1.71-3.97 4.487-4.107.995-.049 1.928.001 2.79.145-.116-.7-.351-1.259-.702-1.66-.484-.554-1.226-.83-2.15-.842h-.037c-.741 0-1.708.207-2.334.998l-1.622-1.317c.878-1.106 2.174-1.716 3.649-1.716h.05c2.606.017 4.16 1.632 4.315 4.462.09.038.18.077.267.117 1.221.573 2.121 1.436 2.61 2.5.667 1.454.727 3.837-1.198 5.719-1.752 1.715-3.898 2.492-6.958 2.514zm.686-10.995c-.098 0-.196.001-.295.005-1.68.083-2.712.884-2.674 2.037.04 1.192 1.29 1.746 2.494 1.696 1.093-.043 2.505-.474 2.744-3.16a8.34 8.34 0 0 0-2.269-.578z"/></svg>
